<svg xmlns="http://www.w3.org/2000/svg" x="0px" y="0px" width="100" height="100" viewBox="0 0 50 50">
<path d="M 30 5 C 29.92 5 29.839766 5.0092969 29.759766 5.0292969 L 21.759766 7.0292969 C 21.439766 7.1092969 21.180312 7.340625 21.070312 7.640625 C 20.950313 7.940625 20.989922 8.2807813 21.169922 8.5507812 L 26.490234 16.529297 L 32.339844 14.189453 L 34.169922 11.449219 C 34.289922 11.259219 34.469687 11.120781 34.679688 11.050781 L 40.679688 9.0507812 C 41.209688 8.8707812 41.769219 9.1596875 41.949219 9.6796875 C 42.119219 10.209687 41.840313 10.769219 41.320312 10.949219 L 35.640625 12.839844 L 33.830078 15.550781 C 33.720078 15.720781 33.559141 15.849687 33.369141 15.929688 L 29 17.679688 L 29 21 C 29 21.11 29.020781 21.210313 29.050781 21.320312 L 29.519531 22.710938 L 33.630859 21.070312 C 34.140859 20.870313 34.719687 21.120859 34.929688 21.630859 C 35.129687 22.140859 34.879141 22.719687 34.369141 22.929688 L 29.429688 24.910156 L 28.109375 27.550781 C 28.039375 27.690781 28 27.84 28 28 L 28 30.210938 L 36.390625 27.160156 L 40.220703 22.380859 C 40.560703 21.940859 41.189141 21.870703 41.619141 22.220703 C 42.059141 22.560703 42.129297 23.189141 41.779297 23.619141 L 37.779297 28.619141 C 37.669297 28.769141 37.509844 28.879453 37.339844 28.939453 L 26.539062 32.869141 L 24.769531 36.990234 C 24.839531 37.000234 24.92 37 25 37 C 26.8 37 27.71 36.059531 27.75 36.019531 C 28.32 35.249531 29.079297 34.830078 30.029297 34.830078 C 30.979297 34.830078 31.740781 35.310078 32.300781 36.080078 C 32.300781 36.080078 32.540234 36.309062 32.990234 36.539062 C 33.440234 36.769062 34.11 37 35 37 C 36.8 37 37.71 36.059531 37.75 36.019531 C 38.13 35.489531 38.610937 35.189531 39.210938 35.019531 L 40.029297 31.759766 C 40.089297 31.499766 40.260234 31.280625 40.490234 31.140625 L 47 27.230469 L 47 14.080078 L 42.560547 15.849609 L 40.710938 17.710938 C 40.510938 17.900937 40.26 18 40 18 C 39.74 18 39.489063 17.900937 39.289062 17.710938 C 38.899062 17.320937 38.899062 16.679063 39.289062 16.289062 L 41.289062 14.289062 C 41.389062 14.199062 41.500859 14.120313 41.630859 14.070312 L 47 11.919922 L 47 6 C 47 5.45 46.55 5 46 5 L 30 5 z M 47 29.560547 L 41.869141 32.640625 L 41.220703 35.240234 C 41.420703 35.340234 41.620781 35.459609 41.800781 35.599609 C 41.800781 35.599609 43.75 37 46 37 C 46.35 37 46.69 37.059688 47 37.179688 L 47 29.560547 z M 9.9765625 37 A 1.0001 1.0001 0 0 0 9.4003906 37.199219 C 9.4003906 37.199219 6.93408 39 4 39 A 1.0001 1.0001 0 1 0 4 41 C 7.071123 41 9.1406587 39.719787 9.9257812 39.191406 C 10.640429 39.839132 12.138693 41 15 41 C 17.766925 41 19.235803 39.923165 20 39.251953 C 20.764197 39.923165 22.233075 41 25 41 C 27.766925 41 29.235803 39.923165 30 39.251953 C 30.764197 39.923165 32.233075 41 35 41 C 37.861307 41 39.359571 39.839132 40.074219 39.191406 C 40.859341 39.719787 42.928877 41 46 41 A 1.0001 1.0001 0 1 0 46 39 C 43.06592 39 40.599609 37.199219 40.599609 37.199219 A 1.0001 1.0001 0 0 0 39.232422 37.359375 C 39.232422 37.359375 37.93408 39 35 39 C 32.06592 39 30.767578 37.359375 30.767578 37.359375 A 1.0001 1.0001 0 0 0 29.232422 37.359375 C 29.232422 37.359375 27.93408 39 25 39 C 22.06592 39 20.767578 37.359375 20.767578 37.359375 A 1.0001 1.0001 0 0 0 19.232422 37.359375 C 19.232422 37.359375 17.93408 39 15 39 C 12.06592 39 10.767578 37.359375 10.767578 37.359375 A 1.0001 1.0001 0 0 0 9.9765625 37 z M 9.9765625 42 A 1.0001 1.0001 0 0 0 9.4003906 42.199219 C 9.4003906 42.199219 6.93408 44 4 44 A 1.0001 1.0001 0 1 0 4 46 C 7.071123 46 9.1406587 44.719787 9.9257812 44.191406 C 10.640429 44.839132 12.138693 46 15 46 C 17.766925 46 19.235803 44.923165 20 44.251953 C 20.764197 44.923165 22.233075 46 25 46 C 27.766925 46 29.235803 44.923165 30 44.251953 C 30.764197 44.923165 32.233075 46 35 46 C 37.861307 46 39.359571 44.839132 40.074219 44.191406 C 40.859341 44.719787 42.928877 46 46 46 A 1.0001 1.0001 0 1 0 46 44 C 43.06592 44 40.599609 42.199219 40.599609 42.199219 A 1.0001 1.0001 0 0 0 39.232422 42.359375 C 39.232422 42.359375 37.93408 44 35 44 C 32.06592 44 30.767578 42.359375 30.767578 42.359375 A 1.0001 1.0001 0 0 0 29.232422 42.359375 C 29.232422 42.359375 27.93408 44 25 44 C 22.06592 44 20.767578 42.359375 20.767578 42.359375 A 1.0001 1.0001 0 0 0 19.232422 42.359375 C 19.232422 42.359375 17.93408 44 15 44 C 12.06592 44 10.767578 42.359375 10.767578 42.359375 A 1.0001 1.0001 0 0 0 9.9765625 42 z"></path>
</svg>