<svg xmlns="http://www.w3.org/2000/svg" x="0px" y="0px" width="100" height="100" viewBox="0 0 50 50">
<path d="M 12 0 L 12 24 L 14 24 L 14 13 L 24 13 L 24 24 L 26 24 L 26 13 L 36 13 L 36 24 L 38 24 L 38 0 Z M 14 2 L 24 2 L 24 11 L 14 11 Z M 26 2 L 36 2 L 36 11 L 26 11 Z M 3 22 C 1.355469 22 0 23.355469 0 25 C 0 26.625 1.320313 27.964844 2.9375 28 C 2.816406 29.6875 2.445313 31.132813 2.03125 32.53125 C 1.535156 34.203125 1 35.871094 1 37.8125 C 1 39.535156 1.582031 40.957031 2.09375 42.15625 C 2.605469 43.355469 3 44.332031 3 45 L 3 50 L 47 50 L 47 45 C 47 44.332031 47.394531 43.40625 47.90625 42.21875 C 48.417969 41.03125 49 39.578125 49 37.8125 C 49 35.871094 48.464844 34.203125 47.96875 32.53125 C 47.554688 31.132813 47.183594 29.6875 47.0625 28 C 48.679688 27.964844 50 26.625 50 25 C 50 23.355469 48.644531 22 47 22 C 45.355469 22 44 23.355469 44 25 L 46 25 C 46 24.445313 46.445313 24 47 24 C 47.554688 24 48 24.445313 48 25 C 48 25.554688 47.554688 26 47 26 L 3 26 C 2.445313 26 2 25.554688 2 25 C 2 24.445313 2.445313 24 3 24 C 3.554688 24 4 24.445313 4 25 L 6 25 C 6 23.355469 4.644531 22 3 22 Z M 4.9375 28 L 8.125 28 C 8.023438 29.382813 7.765625 30.933594 7.46875 32.4375 C 7.09375 34.316406 6.6875 36.101563 6.6875 37.59375 C 6.6875 38.960938 7.121094 40.488281 7.5 41.875 C 7.714844 42.660156 7.90625 43.410156 8.03125 44 L 4.90625 44 C 4.710938 43.074219 4.269531 42.230469 3.90625 41.375 C 3.417969 40.222656 3 39.089844 3 37.8125 C 3 36.253906 3.464844 34.796875 3.96875 33.09375 C 4.402344 31.636719 4.816406 29.976563 4.9375 28 Z M 10.15625 28 L 13.46875 28 C 13.386719 29.136719 13.1875 30.730469 13 32.28125 C 12.75 34.367188 12.5 36.320313 12.5 37.40625 C 12.5 38.378906 12.75 39.941406 13 41.53125 C 13.125 42.328125 13.25 43.121094 13.34375 43.75 C 13.363281 43.875 13.359375 43.882813 13.375 44 L 10.09375 44 C 9.949219 43.179688 9.667969 42.304688 9.40625 41.34375 C 9.035156 39.980469 8.6875 38.527344 8.6875 37.59375 C 8.6875 36.484375 9.0625 34.738281 9.4375 32.84375 C 9.75 31.277344 10.058594 29.601563 10.15625 28 Z M 15.46875 28 L 18.75 28 C 18.714844 28.917969 18.664063 30.3125 18.5625 32.15625 C 18.4375 34.441406 18.3125 36.550781 18.3125 37.1875 C 18.3125 37.796875 18.4375 39.492188 18.5625 41.28125 C 18.625 42.175781 18.671875 43.058594 18.71875 43.75 C 18.726563 43.886719 18.742188 43.875 18.75 44 L 15.4375 44 C 15.414063 43.828125 15.375 43.675781 15.34375 43.46875 C 15.25 42.816406 15.125 42.011719 15 41.21875 C 14.75 39.636719 14.5 37.933594 14.5 37.40625 C 14.5 36.691406 14.75 34.589844 15 32.5 C 15.195313 30.875 15.390625 29.257813 15.46875 28 Z M 20.78125 28 L 24 28 L 24 44 L 20.75 44 C 20.738281 43.851563 20.730469 43.816406 20.71875 43.625 C 20.671875 42.929688 20.625 42.050781 20.5625 41.15625 C 20.4375 39.371094 20.3125 37.378906 20.3125 37.1875 C 20.3125 36.921875 20.4375 34.570313 20.5625 32.28125 C 20.65625 30.546875 20.742188 29.050781 20.78125 28 Z M 26 28 L 29.21875 28 C 29.257813 29.050781 29.34375 30.546875 29.4375 32.28125 C 29.5625 34.570313 29.6875 36.921875 29.6875 37.1875 C 29.6875 37.378906 29.5625 39.371094 29.4375 41.15625 C 29.375 42.050781 29.328125 42.929688 29.28125 43.625 C 29.269531 43.816406 29.261719 43.851563 29.25 44 L 26 44 Z M 31.25 28 L 34.53125 28 C 34.609375 29.257813 34.804688 30.875 35 32.5 C 35.25 34.589844 35.5 36.691406 35.5 37.40625 C 35.5 37.933594 35.25 39.636719 35 41.21875 C 34.875 42.011719 34.75 42.816406 34.65625 43.46875 C 34.625 43.675781 34.585938 43.828125 34.5625 44 L 31.25 44 C 31.257813 43.875 31.273438 43.886719 31.28125 43.75 C 31.328125 43.058594 31.375 42.175781 31.4375 41.28125 C 31.5625 39.492188 31.6875 37.796875 31.6875 37.1875 C 31.6875 36.550781 31.5625 34.441406 31.4375 32.15625 C 31.335938 30.3125 31.285156 28.917969 31.25 28 Z M 36.53125 28 L 39.84375 28 C 39.941406 29.601563 40.25 31.277344 40.5625 32.84375 C 40.9375 34.738281 41.3125 36.484375 41.3125 37.59375 C 41.3125 38.527344 40.964844 39.980469 40.59375 41.34375 C 40.332031 42.304688 40.050781 43.179688 39.90625 44 L 36.625 44 C 36.640625 43.882813 36.636719 43.875 36.65625 43.75 C 36.75 43.121094 36.875 42.328125 37 41.53125 C 37.25 39.941406 37.5 38.378906 37.5 37.40625 C 37.5 36.320313 37.25 34.367188 37 32.28125 C 36.8125 30.730469 36.613281 29.136719 36.53125 28 Z M 41.875 28 L 45.0625 28 C 45.183594 29.976563 45.597656 31.636719 46.03125 33.09375 C 46.535156 34.796875 47 36.253906 47 37.8125 C 47 39.148438 46.582031 40.269531 46.09375 41.40625 C 45.730469 42.25 45.289063 43.078125 45.09375 44 L 41.96875 44 C 42.09375 43.410156 42.285156 42.660156 42.5 41.875 C 42.878906 40.488281 43.3125 38.960938 43.3125 37.59375 C 43.3125 36.101563 42.90625 34.316406 42.53125 32.4375 C 42.234375 30.933594 41.976563 29.382813 41.875 28 Z M 5 46 L 45 46 L 45 48 L 5 48 Z"></path>
</svg>
