<svg xmlns="http://www.w3.org/2000/svg" x="0px" y="0px" width="50" height="50" viewBox="0 0 50 50">
<path d="M 3.1425781 2.9980469 A 1.0011001 1.0011001 0 0 0 2.1542969 3.8378906 L 1.0117188 10.837891 A 1.0011001 1.0011001 0 0 0 2 12.001953 L 4.9980469 12.001953 L 4.9980469 14 A 1.0019531 1.0019531 0 1 0 7.0019531 14 L 7.0019531 12.001953 L 10 12.001953 A 1.0011001 1.0011001 0 0 0 10.988281 10.837891 L 9.8457031 3.8378906 A 1.0011001 1.0011001 0 0 0 8.8574219 2.9980469 L 3.1425781 2.9980469 z M 41.142578 2.9980469 A 1.0011001 1.0011001 0 0 0 40.154297 3.8378906 L 39.011719 10.837891 A 1.0011001 1.0011001 0 0 0 40 12.001953 L 42.998047 12.001953 L 42.998047 14 A 1.001953 1.001953 0 0 0 45.001953 14 L 45.001953 12.001953 L 48 12.001953 A 1.0011001 1.0011001 0 0 0 48.988281 10.837891 L 47.845703 3.8378906 A 1.0011001 1.0011001 0 0 0 46.857422 2.9980469 L 41.142578 2.9980469 z M 3.9941406 5.0019531 L 8.0058594 5.0019531 L 8.8222656 9.9980469 L 6.1542969 9.9980469 A 1.0011001 1.0011001 0 0 0 5.8476562 9.9980469 L 3.1777344 9.9980469 L 3.9941406 5.0019531 z M 41.994141 5.0019531 L 46.005859 5.0019531 L 46.822266 9.9980469 L 44.154297 9.9980469 A 1.0011001 1.0011001 0 0 0 43.847656 9.9980469 L 41.177734 9.9980469 L 41.994141 5.0019531 z M 25 15 C 14.805941 15 9.3810264 16.39455 6.3554688 18.490234 C 3.3299111 20.585919 3 23.478319 3 25.400391 L 3 34.441406 C 2.9999613 34.448086 2.9980469 34.45425 2.9980469 34.460938 L 2.9980469 39.001953 L 3 39.001953 L 3 41 L 3 42.199219 L 3 47 A 1.0001 1.0001 0 0 0 4 48 L 12 48 A 1.0001 1.0001 0 0 0 13 47 L 13 46 L 37 46 L 37 47 A 1.0001 1.0001 0 0 0 38 48 L 46 48 A 1.0001 1.0001 0 0 0 47 47 L 47 42.199219 L 47 40.800781 L 47 39.001953 L 47.001953 39.001953 L 47.001953 34.460938 C 47.001953 34.45425 47.000039 34.448086 47 34.441406 L 47 25.400391 C 47 23.478319 46.670089 20.585919 43.644531 18.490234 C 40.618974 16.39455 35.194059 15 25 15 z M 25 17 C 35.005941 17 40.081417 18.45545 42.505859 20.134766 C 44.930302 21.814081 45 23.622463 45 25.400391 L 45 31.335938 C 44.553673 31.124643 44.06195 30.998047 43.539062 30.998047 L 41.001953 30.998047 L 41.001953 30.667969 C 41.001953 28.101119 38.898881 25.998047 36.332031 25.998047 L 30.667969 25.998047 C 28.101852 25.998047 25.998047 28.101119 25.998047 30.667969 L 25.998047 30.998047 L 24.001953 30.998047 L 24.001953 30.667969 C 24.001953 28.101119 21.898881 25.998047 19.332031 25.998047 L 13.667969 25.998047 C 11.101852 25.998047 8.9980469 28.101119 8.9980469 30.667969 L 8.9980469 30.998047 L 6.4609375 30.998047 C 5.9380504 30.998047 5.4463269 31.124643 5 31.335938 L 5 25.400391 C 5 23.622463 5.0696982 21.814081 7.4941406 20.134766 C 9.918583 18.45545 14.994059 17 25 17 z M 13.667969 28.001953 L 19.332031 28.001953 C 20.817182 28.001953 21.998047 29.182818 21.998047 30.667969 L 21.998047 30.998047 L 11.001953 30.998047 L 11.001953 30.667969 C 11.001953 29.182818 12.184085 28.001953 13.667969 28.001953 z M 30.667969 28.001953 L 36.332031 28.001953 C 37.817182 28.001953 38.998047 29.182818 38.998047 30.667969 L 38.998047 30.998047 L 28.001953 30.998047 L 28.001953 30.667969 C 28.001953 29.182818 29.184085 28.001953 30.667969 28.001953 z M 6.4609375 33.001953 L 8.9980469 33.001953 L 24.001953 33.001953 L 25.998047 33.001953 L 41.001953 33.001953 L 43.539062 33.001953 C 44.357419 33.001953 44.998047 33.642581 44.998047 34.460938 L 44.998047 36.998047 L 5.0019531 36.998047 L 5.0019531 34.460938 C 5.0019531 33.642581 5.6425806 33.001953 6.4609375 33.001953 z M 5 39.001953 L 45 39.001953 L 45 40.800781 L 45 42.199219 L 45 46 L 39 46 L 39 45 A 1.0001 1.0001 0 0 0 38 44 L 12 44 A 1.0001 1.0001 0 0 0 11 45 L 11 46 L 5 46 L 5 42.199219 L 5 41 L 5 39.001953 z"></path>
</svg>