<svg xmlns="http://www.w3.org/2000/svg" x="0px" y="0px" width="24" height="24" viewBox="0 0 24 24">
    <path d="M 8 1 L 8 4 L 10 4 L 10 1 L 8 1 z M 12 2 L 12 4 L 14 4 L 14 2 L 12 2 z M 3.7792969 6 L 5.859375 16.392578 C 6.0457293 17.320385 6.8737108 18 7.8203125 18 L 14.179688 18 C 15.126288 18 15.954271 17.320385 16.140625 16.392578 L 16.619141 14 L 18.5 14 C 19.412148 14 20.216908 13.370549 20.439453 12.486328 L 20.939453 10.486328 C 21.249091 9.2477785 20.276704 8 19 8 L 17.820312 8 L 18.220703 6 L 3.7792969 6 z M 6.21875 8 L 15.78125 8 L 14.179688 16 L 7.8203125 16 L 6.21875 8 z M 17.419922 10 L 19 10 L 18.5 11.998047 L 18.5 12 L 17.019531 12 L 17.419922 10 z M 3 20 L 3 22 L 19 22 L 19 20 L 3 20 z"></path>
</svg>