<svg xmlns="http://www.w3.org/2000/svg" x="0px" y="0px" width="100" height="100" viewBox="0 0 66 66">
<path d="M47.24,35.78c-0.1-1.71-0.19-3.18-1.13-4.38c-0.44-0.55-1.13-0.98-1.85-1.13c-0.15-0.03-0.35-0.06-0.58-0.06 c-0.37,0-0.81,0.08-1.19,0.38c-0.87,0.69-1.03,2.03-1.2,3.58c-0.2,1.71-0.42,3.65-1.81,5.04c-0.82,0.81-1.84,1.21-2.74,1.57 c-0.63,0.25-1.23,0.49-1.68,0.83c-1.04,0.78-1.36,2.2-1.24,3.49c0.18-0.03,0.36-0.05,0.54-0.08c0.27-0.05,0.54-0.11,0.81-0.17 c0.39-0.09,0.78-0.19,1.16-0.31c0.26-0.08,0.52-0.16,0.78-0.24c0.38-0.13,0.75-0.27,1.11-0.42c0.25-0.1,0.51-0.21,0.76-0.32 c0.35-0.16,0.7-0.35,1.04-0.53c0.25-0.13,0.5-0.26,0.74-0.41c0.33-0.19,0.64-0.41,0.95-0.62c0.24-0.16,0.49-0.32,0.72-0.5 c0.3-0.22,0.58-0.46,0.86-0.7c0.23-0.19,0.47-0.38,0.69-0.59c0.27-0.25,0.52-0.52,0.77-0.78c0.22-0.22,0.44-0.43,0.65-0.67 c0.26-0.29,0.49-0.61,0.73-0.91c0.17-0.22,0.36-0.43,0.52-0.66c0.06-0.08,0.11-0.17,0.17-0.25c0.15-0.23,0.3-0.45,0.44-0.68 c0-0.01,0-0.03,0-0.04L47.24,35.78z"></path><path d="M24.44,10.15c1.79,0.33,3.82,0.7,5.1,2.34c0.87,1.1,1.08,2.43,1.27,3.6c0.17,1.05,0.31,1.96,0.85,2.53 c0.7,0.75,2.03,0.76,2.98,0.4c1.25-0.47,2.31-1.53,3.21-2.48c0.38-0.4,0.72-0.75,1.17-1.04c2.03-1.29,4.52-0.25,5.86,0.3 c1.14,0.48,2.21,0.72,2.84,0.63c-0.15-0.27-0.3-0.54-0.47-0.79c-0.14-0.22-0.27-0.45-0.42-0.66c-0.34-0.49-0.71-0.96-1.09-1.42 c-0.09-0.11-0.17-0.22-0.26-0.32c-0.31-0.36-0.64-0.68-0.97-1.01c-0.17-0.17-0.33-0.36-0.51-0.52c-0.51-0.47-1.03-0.9-1.58-1.31 c-3.37-2.51-7.36-3.84-11.57-3.84c-0.46,0-0.91,0.02-1.37,0.05c-0.08,0.01-0.17,0.02-0.25,0.02c-0.36,0.03-0.71,0.07-1.07,0.12 c-0.14,0.02-0.27,0.04-0.41,0.07c-0.3,0.05-0.6,0.1-0.89,0.16C26.71,7,26.55,7.03,26.39,7.07c-0.27,0.06-0.55,0.14-0.82,0.21 c-0.16,0.05-0.32,0.09-0.48,0.14c-0.27,0.08-0.53,0.17-0.79,0.27c-0.15,0.06-0.31,0.11-0.46,0.17c-0.28,0.11-0.55,0.23-0.83,0.35 c-0.13,0.06-0.26,0.11-0.38,0.17c-0.35,0.16-0.69,0.34-1.03,0.53c-0.05,0.02-0.09,0.05-0.14,0.07C21.43,9,21.41,9.02,21.38,9.03 c0.53,0.42,1.34,0.78,2.25,0.96C23.9,10.05,24.17,10.1,24.44,10.15z"></path><path d="M28.28,27.93c-0.8-0.28-1.81-0.13-2.72,0.4c-0.41,0.23-0.8,0.54-1.22,0.86c-0.33,0.26-0.66,0.51-1,0.74 c-1.21,0.82-2.41,1.16-3.5,1.02l-0.22-0.03c-0.06-0.01-0.12-0.02-0.18-0.03c-0.09,0.01-0.34,0.05-0.6,0.55 c-0.52,0.99-0.46,2.53-0.17,3.04c0.48,0.86,1.58,1.4,2.56,1.24c0.23-0.04,0.45-0.1,0.68-0.16c0.34-0.09,0.72-0.2,1.14-0.25 c0.35-0.04,0.7-0.04,1.06-0.03c0.39,0.01,0.72,0.02,0.96-0.07c0.25-0.08,0.53-0.33,0.78-0.55c1.07-0.96,2.05-2.03,2.9-3.19 c0.42-0.57,0.84-1.23,0.87-1.84C29.64,28.94,29.05,28.19,28.28,27.93z"></path><path d="M48.82,18.69c-1.52,0.57-3.5-0.01-4.91-0.6c-1.36-0.57-2.74-1.03-3.56-0.5c-0.2,0.13-0.4,0.34-0.63,0.58 c-1.16,1.23-2.46,2.51-4.2,3.17c-0.65,0.25-1.41,0.4-2.18,0.4c-1.27,0-2.57-0.41-3.52-1.42c-1.05-1.13-1.28-2.56-1.49-3.83 c-0.15-0.96-0.3-1.87-0.77-2.46c-0.7-0.9-2.11-1.16-3.59-1.43c-0.29-0.05-0.57-0.1-0.85-0.16c-1.36-0.27-2.9-0.93-3.89-2.01 c-4.9,3.66-7.78,9.37-7.78,15.51c0,5.63,2.45,10.98,6.72,14.67c3.51,3.05,8.01,4.74,12.67,4.74c0.17,0,0.33-0.01,0.49-0.01 c-0.19-2.06,0.38-4.34,2.21-5.72c0.72-0.54,1.54-0.86,2.26-1.15c0.74-0.29,1.44-0.57,1.9-1.02c0.77-0.77,0.93-2.13,1.09-3.56 c0.21-1.83,0.45-3.91,2.13-5.24c1.04-0.83,2.41-1.12,3.84-0.8c1.28,0.28,2.48,1.01,3.27,2.02c0.57,0.72,0.93,1.48,1.17,2.26 c0.67-1.98,1.04-4.07,1.04-6.18C50.26,23.43,49.76,21,48.82,18.69z M30.75,32.94c-0.95,1.3-2.04,2.5-3.24,3.57 c-0.43,0.38-0.95,0.81-1.63,1.05c-0.65,0.22-1.27,0.22-1.82,0.2c-0.24,0-0.48-0.01-0.72,0.01c-0.26,0.03-0.51,0.11-0.77,0.17 c-0.31,0.09-0.63,0.17-0.95,0.22c-0.25,0.04-0.5,0.06-0.75,0.06c-1.77,0-3.5-0.97-4.37-2.53c-0.77-1.37-0.71-3.8,0.14-5.42 c0.58-1.11,1.5-1.77,2.59-1.87c0.31-0.03,0.6,0.02,0.8,0.05l0.14,0.02c0.61,0.08,1.31-0.29,1.78-0.61 c0.3-0.2,0.58-0.42,0.87-0.64c0.46-0.36,0.95-0.73,1.5-1.05c1.55-0.89,3.29-1.11,4.78-0.59c1.81,0.62,3.07,2.37,3,4.15 C32.05,31,31.39,32.07,30.75,32.94z"></path><rect width="5.71" height="3.62" x="30.03" y="54.21"></rect><path d="M44.81,60.96c0,1.04-0.85,1.89-1.89,1.89H22.78c-0.5,0-0.98-0.2-1.33-0.56c-0.26-0.25-0.56-0.68-0.56-1.33 c0-1.04,0.85-1.89,1.89-1.89h20.14c0.65,0,1.08,0.3,1.33,0.56C44.51,59.88,44.81,60.32,44.81,60.96z"></path><path d="M57.58,25.97c0,12.33-8.35,23.1-20.29,26.18c-2.23,0.56-4.5,0.85-6.75,0.85c-0.62,0-1.24-0.02-1.85-0.07 c-5.58-0.39-10.81-2.45-15.08-5.87l-1.26,1.27c-0.25,0.24-0.56,0.36-0.88,0.36c-0.32,0-0.63-0.12-0.88-0.36 c-0.49-0.49-0.49-1.28,0-1.77l1.16-1.16c-1.12-1.08-2.16-2.28-3.1-3.56c-0.4-0.56-0.27-1.34,0.27-1.74 c0.56-0.4,1.34-0.27,1.74,0.27c0.86,1.18,1.82,2.28,2.85,3.27l2.05-2.06c0.32,0.31,0.65,0.61,0.98,0.9c0.3,0.26,0.6,0.5,0.91,0.75 l-2.06,2.06c3.82,3,8.5,4.81,13.48,5.15c2.7,0.24,5.24-0.05,7.8-0.7c10.85-2.8,18.42-12.58,18.42-23.77 c0-5.58-1.89-10.9-5.24-15.15l-1.73,1.73c-0.16-0.21-0.34-0.44-0.53-0.67c-0.07-0.09-0.15-0.19-0.24-0.29 c-0.27-0.32-0.57-0.63-0.87-0.93l1.73-1.72C46.96,7.64,45.56,6.46,44,5.44c-0.57-0.39-0.73-1.16-0.36-1.73 c0.39-0.57,1.16-0.73,1.73-0.36c1.69,1.12,3.23,2.41,4.6,3.83l3.67-3.67c0.49-0.49,1.28-0.49,1.77,0c0.49,0.49,0.49,1.28,0,1.77 l-3.77,3.77C55.44,13.78,57.58,19.72,57.58,25.97z"></path>
</svg>
