<svg xmlns="http://www.w3.org/2000/svg" x="0px" y="0px" width="100" height="100" viewBox="0 0 50 50">
<path d="M 28.953125 2.0019531 A 1.0001 1.0001 0 0 0 28.085938 2.59375 L 24.085938 11.59375 A 1.0001 1.0001 0 0 0 25 13 L 28 13 L 28 15 L 30 15 L 30 13 L 33 13 A 1.0001 1.0001 0 0 0 33.914062 11.59375 L 29.914062 2.59375 A 1.0001 1.0001 0 0 0 28.953125 2.0019531 z M 42 5 C 38.698136 5 36 7.6981361 36 11 C 36 13.960385 38.17166 16.427922 41 16.908203 L 41 22 L 43 22 L 43 16.908203 C 45.82834 16.427922 48 13.960385 48 11 C 48 7.6981361 45.301864 5 42 5 z M 29 5.4628906 L 31.460938 11 L 26.539062 11 L 29 5.4628906 z M 42 7 C 44.220984 7 46 8.7790164 46 11 C 46 13.220984 44.220984 15 42 15 C 39.779016 15 38 13.220984 38 11 C 38 8.7790164 39.779016 7 42 7 z M 19 14 C 15.653333 14 14.120095 15.871342 13.623047 16.074219 A 1.0001 1.0001 0 0 0 13.621094 16.074219 C 12.055396 16.713645 9.6969159 16.765625 9.7792969 16.765625 C 7.151639 16.765625 4.7527477 17.559772 2.96875 18.904297 C 1.1847993 20.248822 0 22.196808 0 24.382812 C 0 26.890708 1.5538539 29.064295 3.796875 30.412109 C 4.3376386 30.736568 4.6210937 31.288304 4.6210938 31.865234 L 4.6210938 31.882812 L 4.6210938 31.904297 C 4.6210938 32.846105 4.2962949 33.764731 3.65625 34.519531 C 3.1260189 35.144167 2.7734375 35.911804 2.7734375 36.736328 C 2.7734375 37.740843 3.2878053 38.641399 4.0273438 39.347656 C 4.7668821 40.053914 5.7490185 40.621546 6.9179688 41.09375 C 9.2558691 42.038158 12.360441 42.589844 15.787109 42.589844 L 15.816406 42.589844 A 1.0001 1.0001 0 0 0 15.818359 42.589844 C 17.068395 42.587444 18.210669 43.156397 18.923828 44.048828 C 20.378146 45.869137 22.790791 47 25.490234 47 C 27.585495 47 29.503404 46.314188 30.939453 45.158203 C 32.909251 43.573277 35.336639 42.581522 37.927734 42.587891 A 1.0001 1.0001 0 0 0 37.929688 42.587891 L 38.425781 42.587891 A 1.0001 1.0001 0 0 0 38.427734 42.587891 C 41.143808 42.587891 43.353394 42.465564 45.058594 41.861328 C 45.911194 41.55921 46.658085 41.118343 47.193359 40.455078 C 47.728541 39.791813 48 38.9285 48 38 C 48 36.707886 48.407457 35.82137 48.902344 34.791016 C 49.397231 33.760661 50 32.575357 50 31 C 50 28.015879 47.427167 25 43 25 L 41 25 C 39.285583 25 38.578136 24.393514 37.884766 23.484375 C 37.191395 22.575236 36.718295 21.304233 35.707031 20.292969 C 33.353478 17.939415 30 18 27 18 C 26.637116 18 26.397392 17.85307 26.009766 17.470703 C 25.62214 17.088336 25.198596 16.499846 24.59375 15.962891 C 22.535444 14.138144 21 14 19 14 z M 19 16 C 20.99933 16 21.465429 15.863427 23.265625 17.458984 C 23.640779 17.792029 24.053345 18.349898 24.605469 18.894531 C 25.157593 19.439164 25.961884 20 27 20 C 30 20 32.646522 20.06058 34.292969 21.707031 C 34.854705 22.268767 35.381543 23.499654 36.294922 24.697266 C 37.208301 25.894877 38.714417 27 41 27 L 43 27 C 46.572833 27 48 29.110121 48 31 C 48 32.071643 47.602769 32.874136 47.097656 33.925781 C 46.592543 34.977426 46 36.267114 46 38 C 46 38.5715 45.87135 38.906531 45.636719 39.197266 C 45.402087 39.488 45.009197 39.756681 44.388672 39.976562 C 43.147622 40.416328 41.07066 40.587891 38.427734 40.587891 L 37.933594 40.587891 C 34.828689 40.580291 31.963749 41.76849 29.685547 43.601562 C 28.629596 44.451578 27.146974 45 25.490234 45 C 23.355678 45 21.51196 44.082522 20.486328 42.798828 C 19.385878 41.421749 17.671611 40.586856 15.816406 40.589844 L 15.787109 40.589844 C 12.578778 40.589844 9.6763653 40.052326 7.6660156 39.240234 C 6.6608408 38.834188 5.884571 38.357274 5.4082031 37.902344 C 4.9318353 37.447414 4.7734375 37.071813 4.7734375 36.736328 C 4.7734375 36.46148 4.8745939 36.171605 5.1796875 35.8125 A 1.0001 1.0001 0 0 0 5.1816406 35.8125 C 6.1255957 34.6993 6.6210936 33.312488 6.6210938 31.904297 L 6.6210938 31.882812 L 6.6210938 31.865234 C 6.6210997 30.612162 5.9754083 29.386807 4.8261719 28.697266 C 3.0351929 27.62108 2 26.066917 2 24.382812 C 2 22.913818 2.7803258 21.552178 4.1738281 20.501953 C 5.5673304 19.451728 7.5589547 18.765625 9.7792969 18.765625 C 10.00161 18.765625 12.27519 18.783555 14.376953 17.925781 C 16.035905 17.248658 16.346667 16 19 16 z M 7 23 A 1.0001 1.0001 0 1 0 7 25 L 10 25 A 1.0001 1.0001 0 1 0 10 23 L 7 23 z M 15 23 A 1.0001 1.0001 0 1 0 15 25 L 28 25 A 1.0001 1.0001 0 1 0 28 23 L 15 23 z M 11 30 A 1.0001 1.0001 0 1 0 11 32 L 31 32 A 1.0001 1.0001 0 1 0 31 30 L 11 30 z M 36 30 A 1.0001 1.0001 0 1 0 36 32 L 40 32 A 1.0001 1.0001 0 1 0 40 30 L 36 30 z M 20 36 A 1.0001 1.0001 0 1 0 20 38 L 43 38 A 1.0001 1.0001 0 1 0 43 36 L 20 36 z"></path>
</svg>