<svg xmlns="http://www.w3.org/2000/svg" x="0px" y="0px" width="100" height="100" viewBox="0 0 50 50">
<path d="M 9 2 C 8.449219 2 8 2.449219 8 3 L 8 23 L 6 23 L 6 29 L 8 29 L 8 47 C 8 47.550781 8.449219 48 9 48 L 41 48 C 41.550781 48 42 47.550781 42 47 L 42 3 C 42 2.449219 41.550781 2 41 2 Z M 10 4 L 40 4 L 40 46 L 10 46 L 10 29 L 16 29 L 16 23 L 10 23 Z M 18 9 L 18 21 L 32 21 L 32 9 Z M 20 11 L 21 11 L 21 19 L 20 19 Z M 23 11 L 24 11 L 24 19 L 23 19 Z M 26 11 L 27 11 L 27 19 L 26 19 Z M 29 11 L 30 11 L 30 19 L 29 19 Z M 8 25 L 8.832031 25 C 8.941406 25.019531 9.050781 25.019531 9.15625 25 L 14 25 L 14 27 L 9.167969 27 C 9.058594 26.980469 8.949219 26.980469 8.84375 27 L 8 27 Z M 18 31 L 18 36 L 32 36 L 32 31 Z M 20 33 L 30 33 L 30 34 L 20 34 Z"></path>
</svg>
