<svg xmlns="http://www.w3.org/2000/svg" x="0px" y="0px" width="100" height="100" viewBox="0 0 128 128">
    <path d="M 84.5 13 C 79.5 13 75.5 17 75.5 22 L 75.5 45 C 75.5 46.7 76.8 48 78.5 48 C 80.2 48 81.5 46.7 81.5 45 L 81.5 22 C 81.5 20.3 82.8 19 84.5 19 L 97.5 19 C 99.2 19 100.5 20.3 100.5 22 L 100.5 45 C 100.5 46.7 101.8 48 103.5 48 C 105.2 48 106.5 46.7 106.5 45 L 106.5 22 C 106.5 17 102.5 13 97.5 13 L 84.5 13 z M 49.300781 34 C 43.100781 34 38 38.9 38 45 C 38 46.7 39.3 48 41 48 C 42.7 48 44 46.7 44 45 C 44 42.2 46.400781 40 49.300781 40 L 58.699219 40 C 61.599219 40 64 42.2 64 45 C 64 46.7 65.3 48 67 48 C 68.7 48 70 46.7 70 45 C 70 38.9 64.899219 34 58.699219 34 L 49.300781 34 z M 19 48 C 17.3 48 16 49.3 16 51 L 9 51 C 4.6 51 1 54.6 1 59 L 1 119 C 1 123.4 4.6 127 9 127 L 95 127 L 99 127 L 119 127 C 123.4 127 127 123.4 127 119 L 127 79 C 127 74.6 123.4 71 119 71 L 107 71 L 107 59 C 107 54.6 103.4 51 99 51 L 92 51 C 92 49.3 90.7 48 89 48 C 87.3 48 86 49.3 86 51 L 22 51 C 22 49.3 20.7 48 19 48 z M 88.800781 63.199219 C 90.500781 63.099219 92 64.499219 92 66.199219 L 92 118 C 92 119.7 90.7 121 89 121 C 87.3 121 86 119.7 86 118 L 86 66.400391 C 86 64.800391 87.200781 63.299219 88.800781 63.199219 z M 19.099609 63.236328 C 20.697852 63.280078 22 64.624219 22 66.199219 L 22 118 C 22 119.7 20.7 121 19 121 C 17.3 121 16 119.7 16 118 L 16 66.400391 C 16 64.900391 17.000391 63.600781 18.400391 63.300781 C 18.637891 63.250781 18.871289 63.230078 19.099609 63.236328 z M 43.898438 65.103516 C 45.075 65.150391 46.125 65.899609 46.5 67.099609 L 49.599609 75.599609 C 50.099609 77.099609 49.300781 78.800391 47.800781 79.400391 L 34.599609 84.199219 C 32.999609 84.799219 31.300781 84.000391 30.800781 82.400391 L 27.699219 73.900391 C 27.099219 72.300391 27.9 70.599609 29.5 70.099609 L 42.699219 65.300781 C 43.099219 65.150781 43.50625 65.087891 43.898438 65.103516 z M 56.558594 85.003906 C 56.938281 84.988281 57.324219 85.049219 57.699219 85.199219 L 80.300781 93.400391 C 81.900781 94.000391 82.699609 95.700781 82.099609 97.300781 L 77.300781 110.5 C 76.700781 112.1 75 112.90078 73.5 112.30078 L 50.900391 104 C 49.300391 103.4 48.499609 101.69922 49.099609 100.19922 L 53.900391 87 C 54.350391 85.8 55.419531 85.050781 56.558594 85.003906 z"></path>
</svg>
