<svg xmlns="http://www.w3.org/2000/svg" x="0px" y="0px" width="64" height="64" viewBox="0 0 512 512">
<path d="M 211 13.611328 C 138.222 13.611328 79 72.825609 79 145.59961 L 79 491.38086 C 79 495.25086 82.438781 498 86.300781 498 L 122.30078 498 A 6.427 6.427 0 0 0 129 491.38477 L 129 145.59961 A 82 82 0 0 1 293 145.59961 L 293 158 L 280.54883 158 C 252.26383 158 229 180.82047 229 209.10547 L 229 242 L 211.28906 242 C 207.42306 242 204 244.79992 204 248.66992 L 204 299.66992 A 7.538 7.538 0 0 0 211.28906 307 L 425.69922 307 A 7.551 7.551 0 0 0 433 299.67188 L 433 248.67188 C 433 244.80587 429.56122 242.00195 425.69922 242.00195 L 407 242.00195 L 407 209.10547 A 50.929 50.929 0 0 0 356.01367 158 L 343 158 L 343 145.59961 C 343 72.821609 283.778 13.611328 211 13.611328 z M 214.44531 27.650391 A 118 118 0 0 1 329 145.59961 L 329 158 L 307 158 L 307 145.59961 A 96 96 0 0 0 115 145.59961 L 115 484 L 93 484 L 93 145.59961 A 118 118 0 0 1 214.44531 27.650391 z M 280.54883 172 L 356.01367 172 A 36.913 36.913 0 0 1 393 209.10547 L 393 242 L 243 242 L 243 209.10547 C 243 188.54047 259.98283 172 280.54883 172 z M 218 256 L 419 256 L 419 293 L 218 293 L 218 256 z M 237.79492 324.00391 A 7 7 0 0 0 231 331 L 231 368 A 7 7 0 0 0 245 368 L 245 331 A 7 7 0 0 0 237.79492 324.00391 z M 317.79492 324.00391 A 7 7 0 0 0 311 331 L 311 368 A 7 7 0 0 0 325 368 L 325 331 A 7 7 0 0 0 317.79492 324.00391 z M 397.79492 324.00391 A 7 7 0 0 0 391 331 L 391 368 A 7 7 0 0 0 405 368 L 405 331 A 7 7 0 0 0 397.79492 324.00391 z M 277.79492 364.00391 A 7 7 0 0 0 271 371 L 271 408 A 7 7 0 0 0 285 408 L 285 371 A 7 7 0 0 0 277.79492 364.00391 z M 357.79492 364.00391 A 7 7 0 0 0 351 371 L 351 408 A 7 7 0 0 0 365 408 L 365 371 A 7 7 0 0 0 357.79492 364.00391 z"></path>
</svg>
